<svg width="1400" height="1400" viewBox="0 0 1400 1400" fill="none" xmlns="http://www.w3.org/2000/svg">
<rect width="1400" height="1400" fill="white"/>
<path fill-rule="evenodd" clip-rule="evenodd" d="M846.82 811.543H886.069L1134 1059.97L1059.97 1134L811.543 886.069V846.82L798.127 832.906C741.482 881.599 667.95 910.913 587.956 910.913C409.585 910.913 265 766.326 265 587.956C265 409.585 409.585 265 587.956 265C766.326 265 910.913 409.585 910.913 587.956C910.913 667.95 881.599 741.482 832.906 798.127L846.82 811.543ZM364.371 587.956C364.371 711.671 464.239 811.543 587.956 811.543C711.671 811.543 811.543 711.671 811.543 587.956C811.543 464.239 711.671 364.371 587.956 364.371C464.239 364.371 364.371 464.239 364.371 587.956Z" fill="#4485FD"/>
</svg>
